<svg width="101" height="38" viewBox="0 0 101 38" fill="none" xmlns="http://www.w3.org/2000/svg">
<g clip-path="url(#clip0_60_3)">
<mask id="mask0_60_3" style="mask-type:luminance" maskUnits="userSpaceOnUse" x="0" y="0" width="101" height="38">
<path d="M101 0H0.0179443V38H101V0Z" fill="white"/>
</mask>
<g mask="url(#mask0_60_3)">
<path d="M98.3724 28.4879C98.2556 27.3484 97.4961 26.4937 96.075 26.4937C94.8685 26.4937 94.0114 27.1961 93.7384 28.4879H98.3713H98.3724ZM100.962 30.2345H93.6811C93.8957 31.6776 94.8494 32.5323 96.2514 32.5323C97.3995 32.5323 98.2174 32.0009 98.4701 31.0706L100.767 31.6776C100.223 33.4812 98.5094 34.5452 96.2121 34.5452C92.961 34.5452 91.2287 32.0962 91.2287 29.6078C91.2287 27.1194 92.8251 24.6715 96.0762 24.6715C99.3273 24.6715 101.001 27.0635 101.001 29.2856C101.001 29.6275 100.982 30.045 100.962 30.2345ZM87.5889 29.3996C87.5889 27.7856 86.5958 26.7413 85.0781 26.7413C83.5604 26.7413 82.5864 27.7856 82.5864 29.3996C82.5864 31.0136 83.5795 32.0392 85.0781 32.0392C86.5767 32.0392 87.5889 30.995 87.5889 29.3996ZM89.866 24.8238V33.7858C89.866 36.3115 87.9192 38.0011 84.9995 38.0011C82.7021 38.0011 80.853 36.8046 80.5216 35.0196L82.7988 34.6591C82.9156 35.551 83.8503 36.0836 84.9984 36.0836C86.4779 36.0836 87.4519 35.2672 87.4519 34.0324V32.9881C86.9654 33.6719 85.8948 34.108 84.7265 34.108C81.845 34.108 80.152 32.2091 80.152 29.3996C80.152 26.5901 81.8461 24.6715 84.6681 24.6715C85.8746 24.6715 86.8868 25.1273 87.4328 25.7913V24.8227H89.866V24.8238ZM76.465 29.6089C76.465 27.8809 75.4338 26.7413 73.8565 26.7413C72.2793 26.7413 71.2671 27.8809 71.2671 29.6089C71.2671 31.3369 72.2984 32.4764 73.8565 32.4764C75.4147 32.4764 76.465 31.3369 76.465 29.6089ZM78.7624 34.3939H76.3089V33.2927C75.8225 34.0521 74.7317 34.5462 73.506 34.5462C70.5661 34.5462 68.8338 32.5334 68.8338 29.6089C68.8338 26.6844 70.5661 24.6726 73.4667 24.6726C74.6935 24.6726 75.7438 25.1657 76.3089 25.8878V24.8249H78.7624V34.395V34.3939ZM64.9918 20.9504H67.4453V34.3939H64.9918V20.9504ZM60.6645 20.9504H63.118V34.3939H60.6645V20.9504ZM56.3158 24.8238H58.7693V34.3939H56.3158V24.8238ZM56.0237 21.8807C56.0237 21.0644 56.6663 20.419 57.5426 20.419C58.4188 20.419 59.0996 21.0644 59.0996 21.8807C59.0996 22.697 58.4379 23.3621 57.5426 23.3621C56.6472 23.3621 56.0237 22.7167 56.0237 21.8807ZM42.8879 21.1016H45.5941L49.1171 31.3171L52.6794 21.1016H55.3654L50.4011 34.3928H47.851L42.8868 21.1016H42.8879ZM91.4646 9.45288H93.9181V10.896C94.5416 9.96569 95.6504 9.30058 97.0333 9.30058C99.1745 9.30058 100.616 10.668 100.616 12.7565V19.023H98.1634V13.3263C98.1634 12.2065 97.4433 11.4274 96.2941 11.4274C94.7955 11.4274 93.9193 12.6809 93.9193 14.8264V19.023H91.4658V9.45288H91.4646ZM87.2777 14.0287C87.2777 12.4146 86.2846 11.3704 84.7669 11.3704C83.2492 11.3704 82.2753 12.4146 82.2753 14.0287C82.2753 15.6427 83.2683 16.6683 84.7669 16.6683C86.2655 16.6683 87.2777 15.624 87.2777 14.0287ZM89.5549 9.45288V18.4149C89.5549 20.9405 87.608 22.6302 84.6883 22.6302C82.391 22.6302 80.5418 21.4336 80.2104 19.6498L82.4887 19.2893C82.6055 20.1812 83.5402 20.7137 84.6883 20.7137C86.1678 20.7137 87.1407 19.8974 87.1407 18.6625V17.6183C86.6542 18.302 85.5836 18.7381 84.4153 18.7381C81.5338 18.7381 79.8409 16.8392 79.8409 14.0298C79.8409 11.2203 81.5349 9.30167 84.3569 9.30167C85.5634 9.30167 86.5756 9.7575 87.1216 10.4215V9.45288H89.5549ZM76.082 9.45288H78.5355V19.023H76.082V9.45288ZM75.7899 6.50975C75.7899 5.69343 76.4325 5.04804 77.3087 5.04804C78.185 5.04804 78.8657 5.69343 78.8657 6.50975C78.8657 7.32607 78.2041 7.99118 77.3087 7.99118C76.4134 7.99118 75.7899 7.34579 75.7899 6.50975ZM66.7072 16.345L68.7125 15.5473C69.0046 16.516 69.764 17.3137 70.9896 17.3137C71.9052 17.3137 72.5084 16.8392 72.5084 16.2311C72.5084 14.4275 67.1544 15.6043 67.1544 11.9775C67.1544 10.4774 68.4979 9.30058 70.6391 9.30058C72.5466 9.30058 74.1621 10.2495 74.5912 11.6356L72.6051 12.4519C72.3332 11.5403 71.4761 11.0658 70.6773 11.0658C69.8786 11.0658 69.3731 11.389 69.3731 11.9391C69.3731 13.6287 74.7654 12.281 74.7654 16.1927C74.7654 17.8451 73.2465 19.1742 70.9885 19.1742C68.6136 19.1742 67.1925 17.7498 66.7061 16.345H66.7072ZM63.546 13.117C63.4292 11.9775 62.6698 11.1228 61.2487 11.1228C60.0421 11.1228 59.185 11.8251 58.9131 13.117H63.546ZM66.1354 14.8636H58.8547C59.0693 16.3067 60.023 17.1614 61.4239 17.1614C62.572 17.1614 63.3898 16.6299 63.6426 15.6997L65.9399 16.3067C65.3951 18.1103 63.6819 19.1742 61.3846 19.1742C58.1335 19.1742 56.4012 16.7253 56.4012 14.2379C56.4012 11.7506 57.9975 9.30167 61.2487 9.30167C64.4998 9.30167 66.1736 11.6937 66.1736 13.9158C66.1736 14.2577 66.1545 14.6751 66.1343 14.8647L66.1354 14.8636ZM48.2611 16.7811C50.5977 16.7811 52.7973 15.623 52.7973 12.3763C52.7973 9.12964 50.5977 7.95173 48.2611 7.95173H46.6456V16.7811H48.2611ZM44.0371 5.73068H48.4947C52.2514 5.73068 55.4834 7.91447 55.4834 12.3763C55.4834 16.8381 52.2514 19.0219 48.4947 19.0219H44.0371V5.73068ZM20.5694 28.6611L22.6679 22.9293H33.1615L28.9645 11.4657H26.8649L24.7664 17.1975H12.5921L14.6918 22.9293H0V34.3939H35.2611V28.6622H20.5694V28.6611ZM8.39514 5.73178H6.29551L2.09738 17.1953H12.591L8.39401 5.73178H8.39514ZM32.3223 8.59821C34.3512 8.59821 35.9958 6.99406 35.9958 5.01517C35.9958 3.03627 34.3512 1.43212 32.3223 1.43212C30.2935 1.43212 28.6488 3.03627 28.6488 5.01517C28.6488 6.99406 30.2935 8.59821 32.3223 8.59821ZM23.9261 11.4646H13.4313L17.6294 0H19.728L23.9261 11.4636V11.4646Z" fill="white"/>
</g>
</g>
<defs>
<clipPath id="clip0_60_3">
<rect width="101" height="38" fill="white"/>
</clipPath>
</defs>
</svg>
