<svg width="59" height="96" viewBox="0 0 59 96" fill="none" xmlns="http://www.w3.org/2000/svg">
<path d="M55.0835 86.3175C54.9668 85.1591 54.2126 84.2882 52.8019 84.2882C51.6028 84.2882 50.7536 85.0045 50.4823 86.3175H55.0808H55.0835ZM57.6526 88.0945H50.4254C50.637 89.5622 51.5838 90.4331 52.9755 90.4331C54.115 90.4331 54.9261 89.8932 55.1784 88.9464L57.4573 89.5649C56.9174 91.4016 55.2164 92.484 52.9348 92.484C49.7064 92.484 47.9864 89.9908 47.9864 87.4597C47.9864 84.9285 49.5708 82.4353 52.7992 82.4353C56.0276 82.4353 57.6879 84.8715 57.6879 87.1314C57.6879 87.4787 57.6689 87.9046 57.6499 88.0972L57.6526 88.0945ZM44.3755 87.2453C44.3755 85.604 43.3907 84.5406 41.8823 84.5406C40.3739 84.5406 39.4081 85.604 39.4081 87.2453C39.4081 88.8867 40.3929 89.9312 41.8823 89.9312C43.3717 89.9312 44.3755 88.8677 44.3755 87.2453ZM46.6354 82.5872V91.7081C46.6354 94.2773 44.7038 95.9973 41.8037 95.9973C39.5221 95.9973 37.6881 94.7792 37.3599 92.9642L39.6197 92.598C39.7364 93.5068 40.6642 94.0467 41.8037 94.0467C43.2714 94.0467 44.2399 93.2165 44.2399 91.9604V90.897C43.757 91.5915 42.6935 92.0364 41.5351 92.0364C38.6756 92.0364 36.9936 90.1048 36.9936 87.2426C36.9936 84.3805 38.6756 82.4299 41.4781 82.4299C42.6772 82.4299 43.681 82.8938 44.2209 83.5693V82.5845H46.6354V82.5872ZM33.3312 87.457C33.3312 85.699 32.3084 84.5378 30.743 84.5378C29.1776 84.5378 28.1739 85.6963 28.1739 87.457C28.1739 89.2177 29.1993 90.3761 30.743 90.3761C32.2867 90.3761 33.3312 89.2177 33.3312 87.457ZM35.6127 92.3267H33.1765V91.2062C32.6936 91.9794 31.6111 92.4813 30.393 92.4813C27.4739 92.4813 25.7539 90.4331 25.7539 87.457C25.7539 84.4809 27.4739 82.4326 30.3523 82.4326C31.5705 82.4326 32.6122 82.9345 33.1738 83.6697V82.5872H35.61V92.3267H35.6127ZM21.9422 78.6453H24.3785V92.3267H21.9422V78.6453ZM17.6477 78.6453H20.0839V92.3267H17.6477V78.6453ZM13.3314 82.5872H15.7676V92.3267H13.3314V82.5872ZM13.0411 79.5922C13.0411 78.762 13.6786 78.1055 14.5495 78.1055C15.4203 78.1055 16.0959 78.762 16.0959 79.5922C16.0959 80.4223 15.4393 81.1005 14.5495 81.1005C13.6596 81.1005 13.0411 80.444 13.0411 79.5922ZM0 78.8H2.68581L6.18279 89.196L9.72046 78.8H12.3873L7.46058 92.3267H4.92941L0.00271294 78.8H0ZM48.2225 66.9444H50.6587V68.4121C51.2772 67.4653 52.3787 66.7898 53.7514 66.7898C55.8784 66.7898 57.3081 68.1815 57.3081 70.3058V76.6839H54.8719V70.8863C54.8719 69.7469 54.1557 68.9547 53.0162 68.9547C51.5295 68.9547 50.6587 70.2298 50.6587 72.4137V76.6839H48.2225V66.9444ZM44.0662 71.6026C44.0662 69.9612 43.0814 68.8978 41.5731 68.8978C40.0647 68.8978 39.0989 69.9612 39.0989 71.6026C39.0989 73.2439 40.0836 74.2884 41.5731 74.2884C43.0625 74.2884 44.0662 73.2249 44.0662 71.6026ZM46.3261 66.9444V76.0653C46.3261 78.6345 44.3945 80.3545 41.4944 80.3545C39.2128 80.3545 37.3789 79.1364 37.0506 77.3214L39.3105 76.9552C39.4271 77.864 40.3549 78.4039 41.4944 78.4039C42.9621 78.4039 43.9279 77.5737 43.9279 76.3176V75.2542C43.445 75.9487 42.3815 76.3936 41.2231 76.3936C38.3637 76.3936 36.6816 74.462 36.6816 71.5998C36.6816 68.7377 38.3636 66.7871 41.1661 66.7871C42.3652 66.7871 43.369 67.251 43.9089 67.9265V66.9417H46.3234L46.3261 66.9444ZM32.9513 66.9444H35.3876V76.6839H32.9513V66.9444ZM32.6611 63.9494C32.6611 63.1192 33.2986 62.4627 34.1694 62.4627C35.0403 62.4627 35.7158 63.1192 35.7158 63.9494C35.7158 64.7795 35.0593 65.4577 34.1694 65.4577C33.2796 65.4577 32.6611 64.8012 32.6611 63.9494ZM23.6433 73.9601L25.6345 73.1489C25.9248 74.1337 26.679 74.9449 27.8944 74.9449C28.8033 74.9449 29.4028 74.462 29.4028 73.8434C29.4028 72.0068 24.0882 73.2059 24.0882 69.5136C24.0882 67.9862 25.4202 66.7898 27.5472 66.7898C29.4408 66.7898 31.0441 67.7556 31.4701 69.1663L29.4978 69.9965C29.2265 69.0687 28.3773 68.5858 27.5851 68.5858C26.793 68.5858 26.2911 68.914 26.2911 69.4756C26.2911 71.1956 31.6437 69.8229 31.6437 73.8055C31.6437 75.4875 30.1353 76.8385 27.8944 76.8385C25.5369 76.8385 24.1262 75.3898 23.6433 73.9601ZM20.5044 70.6747C20.3877 69.5163 19.6335 68.6455 18.2228 68.6455C17.0237 68.6455 16.1745 69.3617 15.9032 70.6747H20.5017H20.5044ZM23.0735 72.4517H15.8463C16.0579 73.9194 17.0047 74.7903 18.3964 74.7903C19.5359 74.7903 20.347 74.2504 20.5993 73.3036L22.8809 73.9221C22.341 75.7588 20.64 76.8412 18.3584 76.8412C15.1301 76.8412 13.41 74.348 13.41 71.8169C13.41 69.2857 14.9944 66.7925 18.2228 66.7925C21.4512 66.7925 23.1115 69.2287 23.1115 71.4886C23.1115 71.8359 23.0925 72.2618 23.0735 72.4544V72.4517ZM5.32821 74.405C7.64777 74.405 9.83169 73.2249 9.83169 69.9205C9.83169 66.6162 7.64777 65.4171 5.32821 65.4171H3.72486V74.4023H5.32821V74.405ZM1.13401 63.1572H5.55881C9.2891 63.1572 12.4958 65.3791 12.4958 69.9205C12.4958 74.462 9.2891 76.6839 5.55881 76.6839H1.14215V63.1572H1.13401ZM33.8982 46.8063L37.2405 37.444H53.9576L47.2729 18.722H43.9279L40.5855 28.0843H21.1935L24.5385 37.4467H1.14215V56.1687H57.3081V46.8063H33.9063H33.8982ZM14.5169 9.36235H11.1719L4.48449 28.0843H21.2016L14.5169 9.36235ZM52.631 14.0422C55.8621 14.0422 58.4828 11.4215 58.4828 8.19036C58.4828 4.95925 55.8621 2.33855 52.631 2.33855C49.3999 2.33855 46.7792 4.95925 46.7792 8.19036C46.7792 11.4215 49.3999 14.0422 52.631 14.0422ZM39.2562 18.722H22.5391L29.2265 0H32.5688L39.2562 18.722Z" fill="white"/>
</svg>
