<svg width="1440" height="115" viewBox="0 0 1440 115" fill="none" xmlns="http://www.w3.org/2000/svg">
<g clip-path="url(#clip0_61_29)">
<path d="M41.2023 0H30.8015L10 57H62L41.2023 0Z" fill="white"/>
<path d="M0 115H62.5703L73 86H0V115Z" fill="white"/>
<path d="M103.602 28H93.4015L73 86H124L103.602 28Z" fill="white"/>
<path d="M165.602 0H155.401L135 57H186L165.602 0Z" fill="white"/>
<path d="M227.604 28H217.399L197 86H248L227.604 28Z" fill="white"/>
<path d="M134.426 115H186.57L197 86H124L134.426 115Z" fill="white"/>
<path d="M289.604 0H279.399L259 57H310L289.604 0Z" fill="white"/>
<path d="M258.43 115H310.57L321 86H248L258.43 115Z" fill="white"/>
<path d="M414.602 0H404.401L384 57H435L414.602 0Z" fill="white"/>
<path d="M663.202 0H652.802L632 57H684L663.202 0Z" fill="white"/>
<path d="M352.202 28H341.802L321 86H373L352.202 28Z" fill="white"/>
<path d="M476.604 28H466.399L446 86H497L476.604 28Z" fill="white"/>
<path d="M383.426 115H435.57L446 86H373L383.426 115Z" fill="white"/>
<path d="M538.604 0H528.399L508 57H559L538.604 0Z" fill="white"/>
<path d="M507.43 115H559.57L570 86H497L507.43 115Z" fill="white"/>
<path d="M413.602 0H403.401L383 57H434L413.602 0Z" fill="white"/>
<path d="M600.602 28H590.401L570 86H621L600.602 28Z" fill="white"/>
<path d="M787.602 0H777.401L757 57H808L787.602 0Z" fill="white"/>
<path d="M662.602 0H652.401L632 57H683L662.602 0Z" fill="white"/>
<path d="M631.569 115H684.427L695 86H621L631.569 115Z" fill="white"/>
<path d="M725.602 28H715.401L695 86H746L725.602 28Z" fill="white"/>
<path d="M849.604 28H839.399L819 86H870L849.604 28Z" fill="white"/>
<path d="M756.426 115H808.57L819 86H746L756.426 115Z" fill="white"/>
<path d="M911.604 0H901.399L881 57H932L911.604 0Z" fill="white"/>
<path d="M880.43 115H932.57L943 86H870L880.43 115Z" fill="white"/>
<path d="M1036.6 0H1026.4L1006 57H1057L1036.6 0Z" fill="white"/>
<path d="M1285.2 0H1274.8L1254 57H1306L1285.2 0Z" fill="white"/>
<path d="M974.202 28H963.802L943 86H995L974.202 28Z" fill="white"/>
<path d="M1098.6 28H1088.4L1068 86H1119L1098.6 28Z" fill="white"/>
<path d="M1005.43 115H1057.57L1068 86H995L1005.43 115Z" fill="white"/>
<path d="M1160.6 0H1150.4L1130 57H1181L1160.6 0Z" fill="white"/>
<path d="M1129.43 115H1181.57L1192 86H1119L1129.43 115Z" fill="white"/>
<path d="M1035.6 0H1025.4L1005 57H1056L1035.6 0Z" fill="white"/>
<path d="M1222.6 28H1212.4L1192 86H1243L1222.6 28Z" fill="white"/>
<path d="M1284.6 0H1274.4L1254 57H1305L1284.6 0Z" fill="white"/>
<path d="M1253.57 115H1306.43L1317 86H1243L1253.57 115Z" fill="white"/>
<path d="M1347.6 28H1337.4L1317 86H1368L1347.6 28Z" fill="white"/>
<path d="M1409.2 0H1398.8L1378 57H1430L1409.2 0Z" fill="white"/>
<path d="M1377.43 115H1440V86H1367L1377.43 115Z" fill="white"/>
</g>
<defs>
<clipPath id="clip0_61_29">
<rect width="1440" height="115" fill="white"/>
</clipPath>
</defs>
</svg>
